<svg id="Laag_1" data-name="Laag 1" xmlns="http://www.w3.org/2000/svg" viewBox="0 0 608.6 216.76"><defs><style>.cls-1{fill:#e3131b;}.cls-2{fill:#fff;fill-rule:evenodd;}.cls-3{fill:#f4e600;}.cls-4{isolation:isolate;}.cls-5{fill:#1d1d1b;}</style></defs><polygon class="cls-1" points="113.95 0 0 82.79 43.52 216.76 184.38 216.76 227.91 82.79 113.95 0"/><polygon class="cls-2" points="113.95 113.02 97.28 79.11 113.95 45.21 130.63 79.11 177.26 173.91 143.9 173.91 113.95 113.02"/><polygon class="cls-2" points="80.59 113.04 113.95 113.02 84 173.91 50.65 173.91 80.59 113.04"/><polygon class="cls-3" points="68.22 87.89 34.86 87.87 47.24 113.04 80.59 113.04 68.22 87.89"/><g class="cls-4"><g class="cls-4"><path class="cls-5" d="M332,95.61H310.84l-5,14.45h-7.74L318.32,54h6.51l19.81,56.11h-7.75ZM313,89.25H329.8l-8.17-24.08h-.23Z" transform="translate(-18.75 -6.62)"/><path class="cls-5" d="M366.44,68.36l.54,5.48a14.15,14.15,0,0,1,5.18-4.61,15.59,15.59,0,0,1,7.3-1.64,12.93,12.93,0,0,1,7.15,1.93,11.67,11.67,0,0,1,4.49,5.78,15.61,15.61,0,0,1,5.22-5.64,13.64,13.64,0,0,1,7.54-2.07A12.45,12.45,0,0,1,413.91,72q3.7,4.36,3.7,13.16v24.93H410v-25c0-4.11-.7-7-2.12-8.73s-3.52-2.56-6.32-2.56a8.05,8.05,0,0,0-6.3,2.7,11.76,11.76,0,0,0-2.83,6.82v26.78h-7.63v-25q0-5.85-2.18-8.57a7.56,7.56,0,0,0-6.26-2.72,10.43,10.43,0,0,0-5.7,1.43,9.15,9.15,0,0,0-3.43,4v30.87h-7.59V68.36Z" transform="translate(-18.75 -6.62)"/><path class="cls-5" d="M460.69,98.85a5.07,5.07,0,0,0-1.91-4.09c-1.27-1.05-3.68-2-7.23-2.77q-7.35-1.59-11.31-4.43a9,9,0,0,1-3.95-7.63,11,11,0,0,1,4.34-8.71q4.33-3.63,11.23-3.63,7.09,0,11.49,3.86a11.09,11.09,0,0,1,4.2,9l-.08.23h-7.25a6.58,6.58,0,0,0-2.37-4.9,8.47,8.47,0,0,0-6-2.19q-4,0-6,1.81a5.66,5.66,0,0,0-2,4.31,4.59,4.59,0,0,0,1.72,3.82q1.71,1.35,7.07,2.47,7.66,1.6,11.64,4.58a9.25,9.25,0,0,1,4,7.75,11,11,0,0,1-4.49,9q-4.5,3.51-11.74,3.51-8,0-12.56-4.05a11.5,11.5,0,0,1-4.35-9.44l.07-.23h7.25a7,7,0,0,0,3,5.92,11.71,11.71,0,0,0,6.59,1.87,10.38,10.38,0,0,0,6.34-1.72A5.24,5.24,0,0,0,460.69,98.85Z" transform="translate(-18.75 -6.62)"/><path class="cls-5" d="M496.09,58.31v10H504V74h-7.9V99.31c0,2,.41,3.33,1.21,4.12a4.39,4.39,0,0,0,3.22,1.2,6.83,6.83,0,0,0,1.47-.18,9.65,9.65,0,0,0,1.34-.36l1.05,5.2a6.92,6.92,0,0,1-2.51,1.14,12.87,12.87,0,0,1-3.28.44,9.81,9.81,0,0,1-7.35-2.79q-2.75-2.81-2.74-8.77V74h-6.63V68.36h6.63v-10Z" transform="translate(-18.75 -6.62)"/><path class="cls-5" d="M545.56,110.06q-.39-1.89-.6-3.33a26,26,0,0,1-.25-2.91,17.66,17.66,0,0,1-5.53,5,14.21,14.21,0,0,1-7.34,2q-6.51,0-9.92-3.33t-3.41-9.19A10.77,10.77,0,0,1,523.34,89q4.85-3.37,13.13-3.37h8.24V81.51a7.62,7.62,0,0,0-2.23-5.8,8.76,8.76,0,0,0-6.32-2.14,9.15,9.15,0,0,0-6,1.85,5.56,5.56,0,0,0-2.27,4.43l-7.2.08-.08-.24q-.27-4.55,4.26-8.32t11.69-3.78q7.09,0,11.41,3.61t4.31,10.38v20.08a37.77,37.77,0,0,0,.24,4.32,22.06,22.06,0,0,0,.84,4.08ZM533,104.51a13.46,13.46,0,0,0,7.44-2.12,10.06,10.06,0,0,0,4.31-4.85V90.75H536.2a11,11,0,0,0-7.34,2.32,6.9,6.9,0,0,0-2.76,5.43,5.73,5.73,0,0,0,1.73,4.39A7.28,7.28,0,0,0,533,104.51Z" transform="translate(-18.75 -6.62)"/><path class="cls-5" d="M590.87,75.07,587,74.84a8.61,8.61,0,0,0-5.07,1.43,9.06,9.06,0,0,0-3.18,4v29.79h-7.59V68.36h6.78l.73,6.09a14.39,14.39,0,0,1,4.38-5,10.2,10.2,0,0,1,6-1.82,9.48,9.48,0,0,1,1.62.14,11.79,11.79,0,0,1,1.27.29Z" transform="translate(-18.75 -6.62)"/><path class="cls-5" d="M626.31,75.07l-3.89-.23a8.65,8.65,0,0,0-5.07,1.43,9.2,9.2,0,0,0-3.18,4v29.79h-7.59V68.36h6.78l.73,6.09a14.49,14.49,0,0,1,4.38-5,10.2,10.2,0,0,1,6-1.82,9.31,9.31,0,0,1,1.62.14,11.25,11.25,0,0,1,1.27.29Z" transform="translate(-18.75 -6.62)"/></g></g><g class="cls-4"><g class="cls-4"><path class="cls-5" d="M314.37,165l.8,2.83h.17l.8-2.83,12.12-33.22h3.57l-15,40.28h-3.15l-15-40.28h3.6Z" transform="translate(-18.75 -6.62)"/></g><g class="cls-4"><path class="cls-5" d="M350.88,164.6l1,3.52H352l1.05-3.52,8.13-22.43h3.43L353.26,172.1h-2.65l-11.4-29.93h3.43Z" transform="translate(-18.75 -6.62)"/><path class="cls-5" d="M397.91,152.59H379.84v16.72h20.89v2.79H376.52V131.82h24.07v2.82H379.84v15.13h18.07Z" transform="translate(-18.75 -6.62)"/><path class="cls-5" d="M456.22,158q0,6.72-3.05,10.72a9.93,9.93,0,0,1-8.38,4,11.68,11.68,0,0,1-5.66-1.31,10.4,10.4,0,0,1-3.88-3.75l-.56,4.48h-2.6V128.94h3.32v17.82a10.27,10.27,0,0,1,9.33-5.15,9.76,9.76,0,0,1,8.43,4.3q3,4.31,3.05,11.47Zm-3.35-.58a17.55,17.55,0,0,0-2.21-9.31,7.22,7.22,0,0,0-6.56-3.58,8.64,8.64,0,0,0-5.53,1.67,10.27,10.27,0,0,0-3.16,4.33v13.7a8.83,8.83,0,0,0,8.75,5.61,7.36,7.36,0,0,0,6.52-3.21q2.19-3.19,2.19-8.63Z" transform="translate(-18.75 -6.62)"/><path class="cls-5" d="M480.67,172.68a12,12,0,0,1-9.44-4.11A15.38,15.38,0,0,1,467.61,158V156.5a15.62,15.62,0,0,1,3.67-10.68,11.55,11.55,0,0,1,9.08-4.21q5.46,0,8.43,3.5c2,2.34,3,5.47,3,9.42v2.57H470.93V158a13.52,13.52,0,0,0,2.59,8.49,8.51,8.51,0,0,0,7.15,3.38,13.64,13.64,0,0,0,5-.9,10.92,10.92,0,0,0,3.82-2.42l1.41,2.26a12.24,12.24,0,0,1-4.13,2.76A15.55,15.55,0,0,1,480.67,172.68Zm-.31-28.25a8.11,8.11,0,0,0-6.28,2.74,11.78,11.78,0,0,0-2.87,7l.08.16h17.15v-.69a10.1,10.1,0,0,0-2.09-6.57A7.27,7.27,0,0,0,480.36,144.43Z" transform="translate(-18.75 -6.62)"/><path class="cls-5" d="M507.44,147.26a10.71,10.71,0,0,1,9.8-5.65,9.09,9.09,0,0,1,7.26,2.93c1.69,2,2.53,5,2.53,9.11V172.1h-3.32V153.59c0-3.25-.64-5.57-1.92-7a6.77,6.77,0,0,0-5.3-2.12,9.29,9.29,0,0,0-5.74,1.7,9.87,9.87,0,0,0-3.31,4.55V172.1h-3.32V128.94h3.32Z" transform="translate(-18.75 -6.62)"/><path class="cls-5" d="M552.7,172.68a12,12,0,0,1-9.43-4.11A15.34,15.34,0,0,1,539.64,158V156.5a15.62,15.62,0,0,1,3.67-10.68,11.55,11.55,0,0,1,9.09-4.21q5.45,0,8.42,3.5c2,2.34,3,5.47,3,9.42v2.57H543V158a13.52,13.52,0,0,0,2.59,8.49,8.51,8.51,0,0,0,7.15,3.38,13.73,13.73,0,0,0,5-.9,11,11,0,0,0,3.81-2.42l1.41,2.26a12.24,12.24,0,0,1-4.13,2.76A15.55,15.55,0,0,1,552.7,172.68Zm-.3-28.25a8.08,8.08,0,0,0-6.28,2.74,11.73,11.73,0,0,0-2.88,7l.08.16h17.15v-.69a10.15,10.15,0,0,0-2.08-6.57A7.28,7.28,0,0,0,552.4,144.43Z" transform="translate(-18.75 -6.62)"/><path class="cls-5" d="M587.53,172.68a12,12,0,0,1-9.44-4.11A15.38,15.38,0,0,1,574.47,158V156.5a15.67,15.67,0,0,1,3.66-10.68,11.58,11.58,0,0,1,9.09-4.21c3.64,0,6.44,1.17,8.43,3.5s3,5.47,3,9.42v2.57H577.79V158a13.52,13.52,0,0,0,2.59,8.49,8.5,8.5,0,0,0,7.15,3.38,13.67,13.67,0,0,0,5-.9,11,11,0,0,0,3.82-2.42l1.41,2.26a12.19,12.19,0,0,1-4.14,2.76A15.47,15.47,0,0,1,587.53,172.68Zm-.31-28.25a8.1,8.1,0,0,0-6.28,2.74,11.85,11.85,0,0,0-2.88,7l.09.16H595.3v-.69a10.16,10.16,0,0,0-2.09-6.57A7.27,7.27,0,0,0,587.22,144.43Z" transform="translate(-18.75 -6.62)"/><path class="cls-5" d="M624.65,145l-2.35-.16a7.44,7.44,0,0,0-5.13,1.76,9.67,9.67,0,0,0-2.87,4.82V172.1H611V142.17h2.91l.41,5v.34a10.72,10.72,0,0,1,3.49-4.32,8.76,8.76,0,0,1,5.2-1.55,6.26,6.26,0,0,1,1.16.1,5.92,5.92,0,0,1,.91.21Z" transform="translate(-18.75 -6.62)"/></g></g></svg>