<svg width="166" height="32" viewBox="0 0 166 32" fill="none" xmlns="http://www.w3.org/2000/svg">
<path d="M15.8917 10.8268L18.4513 17.8698L21.2442 10.8268C21.2644 10.7828 21.305 10.7558 21.3524 10.7558H23.9119C23.9593 10.7558 23.9998 10.7828 24.0201 10.8268L26.813 18.0828L29.518 10.8268C29.5382 10.7828 29.5788 10.7558 29.6261 10.7558H34.1502C34.2144 10.7558 34.2652 10.8065 34.2652 10.8707C34.2652 10.8876 34.2618 10.9079 34.255 10.9215L28.5475 24.2096C28.5273 24.2468 28.4867 24.2738 28.4427 24.2738H25.6972C25.6499 24.2738 25.6093 24.2467 25.589 24.2028L22.5831 16.869L19.7091 24.1994C19.6922 24.2434 19.6482 24.2738 19.6009 24.2738H16.8216C16.7776 24.2738 16.737 24.2468 16.7167 24.2062L11.1276 10.9215C11.1006 10.864 11.1242 10.7964 11.1817 10.7659C11.1986 10.7592 11.2155 10.7524 11.2324 10.7558H15.7835C15.8309 10.7558 15.8714 10.7828 15.8917 10.8268Z" fill="#1E262E"/>
<path d="M35.6547 5.56563C35.6513 5.20723 35.7257 4.8522 35.8677 4.52422C36.0029 4.20301 36.199 3.91561 36.4459 3.66878C36.6927 3.42195 36.9835 3.22585 37.3013 3.08722C37.9674 2.80996 38.718 2.80996 39.3841 3.08722C40.0299 3.36786 40.5405 3.87842 40.8211 4.52422C41.0984 5.19032 41.0984 5.94095 40.8211 6.60704C40.5405 7.25285 40.0299 7.76341 39.3841 8.04405C38.718 8.32131 37.9674 8.32131 37.3013 8.04405C36.9835 7.90542 36.6927 7.70931 36.4459 7.46248C36.199 7.21566 36.0029 6.92826 35.8677 6.60704C35.7257 6.27907 35.6513 5.92404 35.6547 5.56563ZM40.7264 10.8707V24.1588C40.7264 24.2231 40.6757 24.2738 40.6115 24.2738H36.0874C36.0232 24.2738 35.9725 24.2231 35.9725 24.1588V10.8707C35.9725 10.8065 36.0232 10.7558 36.0874 10.7558H40.625C40.6892 10.7558 40.74 10.8065 40.74 10.8707H40.7264Z" fill="#1E262E"/>
<path d="M80.4995 29.0989L75.9992 24.3956C80.5976 16.9198 78.2646 7.13122 70.7887 2.5328C63.3129 -2.06563 53.5243 0.267394 48.9259 7.74322C48.652 8.18616 48.4018 8.64262 48.1753 9.11261C48.5506 9.19375 48.9192 9.30533 49.2742 9.45072C52.8785 2.1372 61.7305 -0.872068 69.0474 2.73567C76.3643 6.34341 79.3702 15.192 75.7625 22.5089C75.5427 22.9518 75.3026 23.3846 75.0423 23.8005L74.5723 24.5478L75.1809 25.1834L78.0313 28.142H70.8631L70.5825 28.3279C64.7364 32.1521 57.0104 31.3541 52.0704 26.4108C51.8743 26.2113 51.6816 26.0084 51.4956 25.8022H50.0417C55.1304 32.2738 64.3239 33.7886 71.2181 29.2882H80.4353C80.4962 29.2814 80.5401 29.224 80.53 29.1631C80.5266 29.1394 80.5164 29.1158 80.4995 29.0989Z" fill="#1D69B5"/>
<path d="M4.35836 24.2738H9.29153C9.35577 24.2738 9.40649 24.2231 9.40649 24.1588V9.11591H13.5248C13.589 9.11591 13.6397 9.06519 13.6397 9.00094V4.85898C13.6397 4.79474 13.589 4.74402 13.5248 4.74402H0.114961C0.0507179 4.74402 0 4.79474 0 4.85898V9.00094C0 9.06519 0.0507179 9.11591 0.114961 9.11591H4.2434V24.1588C4.2434 24.2231 4.29412 24.2738 4.35836 24.2738Z" fill="#1E262E"/>
<path d="M53.1354 16.098C53.0915 12.4666 55.3061 9.19365 58.6907 7.88174C61.1184 6.9722 63.7896 6.9722 66.2173 7.88174C67.3195 8.30777 68.3271 8.9502 69.1792 9.77183C70.0042 10.5732 70.6635 11.5301 71.1132 12.5884C71.5798 13.694 71.8165 14.8876 71.8064 16.0879C71.8199 17.2003 71.6272 18.306 71.2383 19.3508C70.8664 20.3347 70.3085 21.2408 69.5917 22.0118L72.2966 24.8756C72.3406 24.9162 72.3406 24.9838 72.3 25.0278C72.2831 25.0481 72.2595 25.0582 72.2324 25.0616H67.9281C67.8909 25.0684 67.8538 25.0548 67.8301 25.0278L66.8867 24.0472C66.2139 24.3515 65.514 24.5916 64.7972 24.7607C64.0296 24.9331 63.2452 25.021 62.4607 25.0176C61.1725 25.0345 59.8944 24.8046 58.6907 24.3414C57.5952 23.9154 56.5944 23.2729 55.7525 22.4513C54.0585 20.7844 53.1117 18.4987 53.1354 16.1217V16.098ZM57.7203 16.098C57.7136 16.7371 57.842 17.3694 58.099 17.9543C58.5893 19.0735 59.5022 19.956 60.6383 20.4057C61.2198 20.6356 61.8386 20.7506 62.4607 20.7438C62.853 20.7438 63.2418 20.6999 63.6239 20.6086L60.8006 17.6331C60.76 17.5892 60.7634 17.5181 60.8073 17.4742C60.8242 17.4573 60.8445 17.4505 60.8682 17.4471H65.1826C65.2164 17.4438 65.2536 17.4539 65.2773 17.481L66.4167 18.688C66.9577 17.9307 67.2384 17.0211 67.2215 16.0913C67.2282 15.4522 67.0998 14.82 66.8428 14.235C66.596 13.6805 66.2409 13.1801 65.8014 12.7608C64.4117 11.4692 62.4033 11.0905 60.6383 11.787C59.5022 12.2367 58.5893 13.1158 58.099 14.235C57.842 14.8233 57.7136 15.4556 57.7203 16.098Z" fill="#1E262E"/>
<path d="M51.3333 24.2739C51.3975 24.2739 51.4482 24.2232 51.4482 24.1589V15.6856C51.455 15.0398 51.384 14.3906 51.2386 13.7617C51.0932 13.2038 50.8227 12.6865 50.4474 12.2503C49.9774 11.6891 49.3891 11.2427 48.723 10.9452C47.9521 10.6172 47.1203 10.4617 46.2851 10.482C45.4906 10.4617 44.6994 10.5969 43.9555 10.8742C43.4077 11.1143 42.9141 11.4591 42.5016 11.8885C42.4779 11.9122 42.4678 11.9426 42.4678 11.9731V14.9249C42.4678 14.9722 42.5083 15.0128 42.5557 15.0128H42.5591C42.5827 15.0128 42.6064 15.0026 42.6233 14.9857C43.1068 14.4921 43.7797 14.2351 44.4661 14.2791C44.7535 14.2757 45.0375 14.323 45.308 14.4109C45.5785 14.5022 45.8219 14.6544 46.0214 14.8572C46.2818 15.1311 46.461 15.4726 46.5354 15.8445C46.6436 16.3788 46.6909 16.9231 46.6807 17.4675V24.1589C46.6807 24.2232 46.7315 24.2739 46.7957 24.2739H51.3333Z" fill="#1E262E"/>
<rect x="88.5334" y="5" width="77" height="22" rx="11" fill="#1D69B5"/>
<path d="M104.95 15.967C105.296 15.967 105.597 15.925 105.853 15.841C106.11 15.7523 106.322 15.6287 106.49 15.47C106.663 15.3067 106.791 15.1107 106.875 14.882C106.959 14.6487 107.001 14.3897 107.001 14.105C107.001 13.8343 106.959 13.5893 106.875 13.37C106.791 13.1507 106.665 12.964 106.497 12.81C106.329 12.656 106.117 12.5393 105.86 12.46C105.604 12.376 105.3 12.334 104.95 12.334H103.543V15.967H104.95ZM104.95 10.878C105.627 10.878 106.213 10.9573 106.707 11.116C107.202 11.2747 107.61 11.4963 107.932 11.781C108.254 12.0657 108.492 12.4063 108.646 12.803C108.805 13.1997 108.884 13.6337 108.884 14.105C108.884 14.595 108.803 15.0453 108.639 15.456C108.476 15.862 108.231 16.212 107.904 16.506C107.578 16.8 107.167 17.0287 106.672 17.192C106.182 17.3553 105.608 17.437 104.95 17.437H103.543V21H101.66V10.878H104.95ZM112.905 13.706C113.437 13.706 113.92 13.7923 114.354 13.965C114.793 14.1377 115.166 14.3827 115.474 14.7C115.787 15.0173 116.027 15.4047 116.195 15.862C116.363 16.3193 116.447 16.8303 116.447 17.395C116.447 17.9643 116.363 18.4777 116.195 18.935C116.027 19.3923 115.787 19.782 115.474 20.104C115.166 20.426 114.793 20.6733 114.354 20.846C113.92 21.0187 113.437 21.105 112.905 21.105C112.369 21.105 111.881 21.0187 111.442 20.846C111.004 20.6733 110.628 20.426 110.315 20.104C110.007 19.782 109.767 19.3923 109.594 18.935C109.426 18.4777 109.342 17.9643 109.342 17.395C109.342 16.8303 109.426 16.3193 109.594 15.862C109.767 15.4047 110.007 15.0173 110.315 14.7C110.628 14.3827 111.004 14.1377 111.442 13.965C111.881 13.7923 112.369 13.706 112.905 13.706ZM112.905 19.775C113.503 19.775 113.944 19.5743 114.228 19.173C114.518 18.7717 114.662 18.1837 114.662 17.409C114.662 16.6343 114.518 16.044 114.228 15.638C113.944 15.232 113.503 15.029 112.905 15.029C112.299 15.029 111.848 15.2343 111.554 15.645C111.265 16.051 111.12 16.639 111.12 17.409C111.12 18.179 111.265 18.767 111.554 19.173C111.848 19.5743 112.299 19.775 112.905 19.775ZM119.397 15.064C119.621 14.6347 119.887 14.2987 120.195 14.056C120.503 13.8087 120.867 13.685 121.287 13.685C121.619 13.685 121.885 13.7573 122.085 13.902L121.973 15.197C121.95 15.281 121.915 15.3417 121.868 15.379C121.826 15.4117 121.768 15.428 121.693 15.428C121.623 15.428 121.518 15.4163 121.378 15.393C121.243 15.3697 121.11 15.358 120.979 15.358C120.788 15.358 120.618 15.386 120.468 15.442C120.319 15.498 120.184 15.5797 120.062 15.687C119.946 15.7897 119.841 15.9157 119.747 16.065C119.659 16.2143 119.575 16.3847 119.495 16.576V21H117.766V13.818H118.781C118.959 13.818 119.082 13.8507 119.152 13.916C119.222 13.9767 119.269 14.0887 119.292 14.252L119.397 15.064ZM125.383 21.112C124.758 21.112 124.277 20.937 123.941 20.587C123.61 20.2323 123.444 19.7447 123.444 19.124V15.113H122.709C122.616 15.113 122.536 15.0827 122.471 15.022C122.406 14.9613 122.373 14.8703 122.373 14.749V14.063L123.528 13.874L123.892 11.914C123.915 11.8207 123.96 11.7483 124.025 11.697C124.09 11.6457 124.174 11.62 124.277 11.62H125.173V13.881H127.091V15.113H125.173V19.005C125.173 19.229 125.227 19.404 125.334 19.53C125.446 19.656 125.598 19.719 125.789 19.719C125.896 19.719 125.985 19.7073 126.055 19.684C126.13 19.656 126.193 19.628 126.244 19.6C126.3 19.572 126.349 19.5463 126.391 19.523C126.433 19.495 126.475 19.481 126.517 19.481C126.568 19.481 126.61 19.495 126.643 19.523C126.676 19.5463 126.711 19.5837 126.748 19.635L127.266 20.475C127.014 20.685 126.725 20.8437 126.398 20.951C126.071 21.0583 125.733 21.112 125.383 21.112ZM131.992 17.934C131.493 17.9573 131.073 18.0017 130.732 18.067C130.391 18.1277 130.118 18.207 129.913 18.305C129.708 18.403 129.561 18.5173 129.472 18.648C129.383 18.7787 129.339 18.921 129.339 19.075C129.339 19.3783 129.428 19.5953 129.605 19.726C129.787 19.8567 130.023 19.922 130.312 19.922C130.667 19.922 130.972 19.859 131.229 19.733C131.49 19.6023 131.745 19.4063 131.992 19.145V17.934ZM128.03 14.819C128.856 14.063 129.85 13.685 131.012 13.685C131.432 13.685 131.808 13.755 132.139 13.895C132.47 14.0303 132.75 14.2217 132.979 14.469C133.208 14.7117 133.38 15.0033 133.497 15.344C133.618 15.6847 133.679 16.058 133.679 16.464V21H132.895C132.732 21 132.606 20.9767 132.517 20.93C132.428 20.8787 132.358 20.7783 132.307 20.629L132.153 20.111C131.971 20.2743 131.794 20.419 131.621 20.545C131.448 20.6663 131.269 20.769 131.082 20.853C130.895 20.937 130.695 21 130.48 21.042C130.27 21.0887 130.037 21.112 129.78 21.112C129.477 21.112 129.197 21.0723 128.94 20.993C128.683 20.909 128.462 20.7853 128.275 20.622C128.088 20.4587 127.944 20.2557 127.841 20.013C127.738 19.7703 127.687 19.488 127.687 19.166C127.687 18.984 127.717 18.8043 127.778 18.627C127.839 18.445 127.937 18.2723 128.072 18.109C128.212 17.9457 128.392 17.7917 128.611 17.647C128.83 17.5023 129.099 17.3763 129.416 17.269C129.738 17.1617 130.111 17.0753 130.536 17.01C130.961 16.94 131.446 16.898 131.992 16.884V16.464C131.992 15.9833 131.889 15.6287 131.684 15.4C131.479 15.1667 131.182 15.05 130.795 15.05C130.515 15.05 130.282 15.0827 130.095 15.148C129.913 15.2133 129.752 15.288 129.612 15.372C129.472 15.4513 129.344 15.5237 129.227 15.589C129.115 15.6543 128.989 15.687 128.849 15.687C128.728 15.687 128.625 15.6567 128.541 15.596C128.457 15.5307 128.389 15.456 128.338 15.372L128.03 14.819ZM137.057 10.598V21H135.328V10.598H137.057ZM143.407 16.583C143.407 16.359 143.374 16.149 143.309 15.953C143.248 15.7523 143.155 15.5773 143.029 15.428C142.903 15.2787 142.742 15.162 142.546 15.078C142.355 14.9893 142.131 14.945 141.874 14.945C141.375 14.945 140.98 15.0873 140.691 15.372C140.406 15.6567 140.224 16.0603 140.145 16.583H143.407ZM140.11 17.626C140.138 17.9947 140.203 18.3143 140.306 18.585C140.409 18.851 140.544 19.0727 140.712 19.25C140.88 19.4227 141.078 19.5533 141.307 19.642C141.54 19.726 141.797 19.768 142.077 19.768C142.357 19.768 142.597 19.7353 142.798 19.67C143.003 19.6047 143.181 19.5323 143.33 19.453C143.484 19.3737 143.617 19.3013 143.729 19.236C143.846 19.1707 143.958 19.138 144.065 19.138C144.21 19.138 144.317 19.1917 144.387 19.299L144.884 19.929C144.693 20.153 144.478 20.342 144.24 20.496C144.002 20.6453 143.752 20.7667 143.491 20.86C143.234 20.9487 142.971 21.0117 142.7 21.049C142.434 21.0863 142.175 21.105 141.923 21.105C141.424 21.105 140.959 21.0233 140.53 20.86C140.101 20.692 139.727 20.447 139.41 20.125C139.093 19.7983 138.843 19.397 138.661 18.921C138.479 18.4403 138.388 17.885 138.388 17.255C138.388 16.765 138.467 16.3053 138.626 15.876C138.785 15.442 139.011 15.0663 139.305 14.749C139.604 14.427 139.965 14.1727 140.39 13.986C140.819 13.7993 141.302 13.706 141.839 13.706C142.292 13.706 142.709 13.7783 143.092 13.923C143.475 14.0677 143.804 14.28 144.079 14.56C144.354 14.8353 144.569 15.176 144.723 15.582C144.882 15.9833 144.961 16.443 144.961 16.961C144.961 17.2223 144.933 17.3997 144.877 17.493C144.821 17.5817 144.714 17.626 144.555 17.626H140.11ZM147.876 14.7C148.02 14.5553 148.172 14.4223 148.331 14.301C148.494 14.175 148.664 14.07 148.842 13.986C149.024 13.8973 149.217 13.8297 149.423 13.783C149.628 13.7317 149.852 13.706 150.095 13.706C150.487 13.706 150.834 13.7737 151.138 13.909C151.441 14.0397 151.693 14.2263 151.894 14.469C152.099 14.707 152.253 14.994 152.356 15.33C152.463 15.6613 152.517 16.0277 152.517 16.429V21H150.788V16.429C150.788 15.9903 150.687 15.652 150.487 15.414C150.286 15.1713 149.98 15.05 149.57 15.05C149.271 15.05 148.991 15.1177 148.73 15.253C148.468 15.3883 148.221 15.5727 147.988 15.806V21H146.259V13.818H147.316C147.54 13.818 147.687 13.923 147.757 14.133L147.876 14.7Z" fill="white"/>
</svg>
